<svg width="16" height="16" viewBox="0 0 16 16" fill="none" xmlns="http://www.w3.org/2000/svg">
<path d="M1.33337 14.6667H14.6667" stroke="#292D32" stroke-miterlimit="10" stroke-linecap="round" stroke-linejoin="round"/>
<path d="M1.96667 14.6667L2.00001 6.64668C2.00001 6.24001 2.19334 5.85338 2.51334 5.60005L7.18001 1.96671C7.66001 1.59337 8.33334 1.59337 8.82001 1.96671L13.4867 5.59338C13.8133 5.84671 14 6.23335 14 6.64668V14.6667" stroke="#292D32" stroke-miterlimit="10" stroke-linejoin="round"/>
<path d="M8.66671 11.3333H7.33337C6.78004 11.3333 6.33337 11.78 6.33337 12.3333V14.6666H9.66671V12.3333C9.66671 11.78 9.22004 11.3333 8.66671 11.3333Z" stroke="#292D32" stroke-miterlimit="10" stroke-linejoin="round"/>
<path d="M6.33337 9.16665H5.00004C4.63337 9.16665 4.33337 8.86665 4.33337 8.49998V7.49998C4.33337 7.13331 4.63337 6.83331 5.00004 6.83331H6.33337C6.70004 6.83331 7.00004 7.13331 7.00004 7.49998V8.49998C7.00004 8.86665 6.70004 9.16665 6.33337 9.16665Z" stroke="#292D32" stroke-miterlimit="10" stroke-linejoin="round"/>
<path d="M11 9.16665H9.66667C9.3 9.16665 9 8.86665 9 8.49998V7.49998C9 7.13331 9.3 6.83331 9.66667 6.83331H11C11.3667 6.83331 11.6667 7.13331 11.6667 7.49998V8.49998C11.6667 8.86665 11.3667 9.16665 11 9.16665Z" stroke="#292D32" stroke-miterlimit="10" stroke-linejoin="round"/>
<path d="M12.6667 4.66669L12.6467 2.66669H9.71338" stroke="#292D32" stroke-miterlimit="10" stroke-linecap="round" stroke-linejoin="round"/>
</svg>
